<!-- icon666.com - MILLIONS OF FREE VECTOR ICONS --><svg id="Layer_1" viewBox="0 0 512 512" xmlns="http://www.w3.org/2000/svg"><path d="m467.524 424.263c-.18-.199-.364-.393-.554-.582l-112.615-112.616c7.107-8.364 13.517-17.425 19.122-27.133 24.28-42.056 30.73-91.05 18.162-137.958-21.265-79.363-93.436-134.791-175.506-134.791-15.849 0-31.715 2.098-47.158 6.236-96.832 25.947-154.502 125.834-128.556 222.665 21.267 79.363 93.437 134.791 175.507 134.791 15.849 0 31.716-2.098 47.158-6.235 4.441-1.19 8.813-2.539 13.109-4.038.713 1.303 1.611 2.532 2.715 3.635l121.754 121.753c.189.189.383.374.581.553 7.621 6.893 17.334 10.273 27.333 10.273 12.15 0 24.725-4.993 34.478-14.745 17.774-17.776 19.738-44.925 4.47-61.808zm-212.721-86.533c-12.743 3.415-25.823 5.146-38.877 5.146-67.612 0-127.073-45.675-144.597-111.074-21.38-79.788 26.14-162.094 105.928-183.474 12.743-3.414 25.822-5.146 38.876-5.146 67.613 0 127.073 45.675 144.597 111.074 10.357 38.651 5.042 79.022-14.965 113.675-20.007 34.655-52.312 59.443-90.962 69.799zm185.623 125.714c-5.424 5.426-13.355 7.005-17.503 3.554l-116.28-116.28c8.79-5.032 17.118-10.782 24.913-17.198l112.421 112.421c3.454 4.149 1.872 12.08-3.551 17.503z" fill="#000000" style="fill: rgb(193, 196, 199);"></path></svg>